<svg version="1.1" xmlns="http://www.w3.org/2000/svg" xmlns:xlink="http://www.w3.org/1999/xlink" x="0px"
	 y="0px" viewBox="-507 451 16 16" enable-background="new -507 451 16 16" xml:space="preserve"  width="16px" height="16px">
<g id="linkedin">
	<path fill="#828282" d="M-503.4,466.6v-10.3h-3.4v10.3H-503.4L-503.4,466.6z M-505.1,454.9c1.2,0,1.9-0.8,1.9-1.8
		c0-1-0.7-1.8-1.9-1.8c-1.2,0-1.9,0.8-1.9,1.8C-507,454.1-506.3,454.9-505.1,454.9L-505.1,454.9L-505.1,454.9z"/>
	<path fill="#828282" d="M-501.5,466.6h3.4v-5.8c0-0.3,0-0.6,0.1-0.8c0.2-0.6,0.8-1.2,1.8-1.2c1.2,0,1.7,0.9,1.7,2.3v5.5h3.4v-5.9
		c0-3.2-1.7-4.6-4-4.6c-1.9,0-2.7,1-3.1,1.7h0v-1.5h-3.4C-501.4,457.3-501.5,466.6-501.5,466.6L-501.5,466.6z"/>
</g>
</svg>
